<?xml version="1.0" encoding="utf-8"?>
<!-- Generator: Adobe Illustrator 21.0.2, SVG Export Plug-In . SVG Version: 6.00 Build 0)  -->
<svg xmlns="http://www.w3.org/2000/svg" xmlns:xlink="http://www.w3.org/1999/xlink" viewBox="0 0 50 50">
<title>Red Hat Hacker</title>
<path d="M24.9,38.1c-1.3,0-2.3,1-2.3,2.3c0,1.3,1,2.3,2.3,2.3c1.3,0,2.3-1,2.3-2.3c0,0,0,0,0,0
	C27.2,39.1,26.2,38.1,24.9,38.1z M24.9,41.8c-0.8,0-1.5-0.6-1.6-1.5s0.6-1.5,1.5-1.6c0.8,0,1.5,0.6,1.6,1.5c0,0,0,0,0,0
	C26.4,41.1,25.7,41.8,24.9,41.8z M18.2,13.4L18.2,13.4l0.7-0.1c2.8,3.6,7.9,4.3,11.5,1.5c1.3-1,2.3-2.4,2.8-4
	c0.2-0.1,0.4-0.1,0.6-0.3c0.2-0.2,0.3-0.4,0.3-0.7c0.7,0.3,1.4,0.5,2.2,0.5c1.2,0,2.3-0.3,3.4-0.7C39.9,9.5,40,9.3,40,9.1
	c0,0,0-0.1,0-0.1c-0.5-0.8-1.1-1.4-2-1.7c0.5-0.9,0.8-2,0.7-3c0-0.2-0.2-0.4-0.4-0.3c0,0-0.1,0-0.1,0c-1.5,0.7-3,1.5-4.4,2.5
	c-0.1-0.1-0.2-0.3-0.4-0.4c-1.2-4.4-5.6-7-10-5.9c-2.8,0.7-5,2.9-5.8,5.7h-0.6c-0.2,0-0.3,0.1-0.4,0.3c0,0.2-0.7,4.3,1.4,7
	C18,13.3,18.1,13.4,18.2,13.4z M39,9c-2,0.7-3.7,0.7-4.8,0V8.7c0.3,0,0.5,0.1,0.8,0.1c0.9,0,1.8-0.3,2.5-0.9C38.1,8.1,38.6,8.5,39,9
	L39,9z M37.9,4.9c0,0.9-0.3,1.7-0.9,2.4c-0.8,0.6-1.8,0.9-2.8,0.6c0-0.3-0.1-0.5-0.1-0.8C35.2,6.3,36.5,5.6,37.9,4.9z M25.4,15.3
	c-1.9,0-3.8-0.8-5.1-2.2c3.3-0.5,8.7-1.3,11.5-1.9C30.6,13.7,28.1,15.3,25.4,15.3z M25.4,1.2c3,0,5.6,1.9,6.6,4.7
	c-2.8-0.2-9.4-0.1-13.3,0C19.7,3.1,22.4,1.2,25.4,1.2z M17.2,6.7C23,6.5,32.1,6.4,32.9,6.7c0.3,0.3,0.5,0.7,0.5,1.1
	c0.1,0.7,0.1,1.4-0.1,2.1c-0.6,0.5-8.1,1.7-14.8,2.6C16.9,10.6,17.1,7.6,17.2,6.7z M21,8.1L22.4,9c0.2,0.1,0.4,0.1,0.5-0.1
	c0.1-0.2,0.1-0.4-0.1-0.5l0,0l-1.3-0.8c-0.2-0.1-0.4-0.1-0.5,0.1C20.8,7.8,20.8,8,21,8.1z M42.4,44.4c-0.2-0.5-0.7-0.8-1.2-0.8h-0.7
	c1.2-1.5,1.8-3.3,1.8-5.2l-0.6-7.4c-0.4-4.5-1.3-12.9-12.5-12.9h-7.9c-11.5,0-12.2,8.4-12.5,13l-0.6,7.3v0c0,1.9,0.6,3.7,1.8,5.2
	H8.8c-0.7,0-1.3,0.6-1.3,1.3c0,0.3,0.1,0.6,0.3,0.9l3.1,3.3c0.3,0.5,0.9,0.9,1.6,0.9h25.2c0.7,0,1.4-0.4,1.7-1.1l2.8-3.1
	C42.5,45.4,42.6,44.9,42.4,44.4z M28.9,19.3c-0.2,1.9-1.9,3.3-3.8,3.1c-1.7-0.2-3-1.5-3.1-3.1H28.9z M21.2,19.3
	c0.2,2.3,2.3,4.1,4.6,3.9c2.1-0.2,3.7-1.8,3.9-3.9c0.5,0,0.9,0,1.3,0.1c0,1.8,0.1,6.9,1.9,8.7c0.4,0.4,0.8,0.6,1.4,0.7l0.1,1.9H16.5
	l0.1-1.9c0.5-0.1,1-0.3,1.3-0.7c1.8-1.8,1.9-6.9,1.9-8.7C20.3,19.4,20.7,19.3,21.2,19.3L21.2,19.3z M10.6,47.1L8.7,45
	c0-0.1,0-0.1,0-0.2c0,0,0,0,0.1,0h1.8V47.1z M10.6,32.6v9.9c-0.8-1.2-1.3-2.6-1.2-4.1l0.6-7.3c0.4-5,1.4-10.8,9.1-11.7
	c0,1.8-0.1,6.5-1.7,8.1c-0.2,0.2-0.4,0.4-0.7,0.4v-0.6c0-0.3-0.3-0.6-0.6-0.6s-0.6,0.3-0.6,0.6l-0.2,3.3h-2.8
	C11.4,30.7,10.6,31.5,10.6,32.6C10.6,32.6,10.6,32.6,10.6,32.6L10.6,32.6z M37.4,48.9H12.7c-0.5,0-0.9-0.4-0.9-0.9V32.8
	c0-0.5,0.4-0.9,0.9-0.9h24.7c0.4,0,0.7,0.2,0.9,0.6c0,0.1,0.1,0.2,0.1,0.4v15.1C38.3,48.4,37.9,48.8,37.4,48.9L37.4,48.9z
	 M37.6,30.7h-2l-0.3-3.3c0-0.3-0.3-0.6-0.6-0.6s-0.6,0.3-0.6,0.6V28c-0.3-0.1-0.6-0.2-0.8-0.5c-1.5-1.6-1.7-6.2-1.7-8.1
	c7.4,1.1,8.3,7,8.8,11.7l0.6,7.3c0,1.7-0.5,3.3-1.6,4.6V32.6C39.5,31.6,38.7,30.7,37.6,30.7L37.6,30.7z M41.3,45l-1.8,2v-2.2h1.7
	C41.3,44.8,41.3,44.9,41.3,45C41.3,45,41.3,45,41.3,45z M26.2,8.8c0.1,0,0.1,0,0.2-0.1l1.3-0.8c0.2-0.1,0.2-0.4,0-0.5
	c-0.1-0.1-0.3-0.2-0.4-0.1L26,8.1c-0.2,0.1-0.2,0.3-0.1,0.5C26,8.7,26.1,8.8,26.2,8.8L26.2,8.8z M27,9.3c-0.4,0-0.6,0.3-0.6,0.6
	c0,0.4,0.3,0.6,0.6,0.6c0.4,0,0.6-0.3,0.6-0.6l0,0C27.6,9.6,27.3,9.3,27,9.3L27,9.3z M22.2,9.5c-0.4,0-0.6,0.3-0.6,0.6
	s0.3,0.6,0.6,0.6c0.4,0,0.6-0.3,0.6-0.6l0,0C22.8,9.7,22.5,9.5,22.2,9.5L22.2,9.5z" fill="#f0f0f0" style="opacity:.95;"/>
</svg>
